# xmcd CD database file
#
# Track frame offsets:
#	150
#	12211
#	31105
#	47167
#	62910
#	80770
#	104042
#	117887
#	128173
#	146222
#	161117
#	177798
#
# Disc length: 2560 seconds
#
# Revision: 0
# Processed by: cddbd v1.5.2PL0 Copyright (c) Steve Scherf et al.
# Submitted via: CDex 1.51
#
DISCID=a809fe0c
DTITLE=Sara Lazarus - It's All Right With Me
DYEAR=2007
DGENRE=Jazz
TTITLE0=Gypsy in my Soul
TTITLE1=Taking a Chance on Love
TTITLE2=What a Little Moonlight Can Do
TTITLE3=Embraceable You
TTITLE4=It's All Right With Me
TTITLE5=Dans Mon Ile
TTITLE6=Deed I Do
TTITLE7=Down With Love
TTITLE8=Jim
TTITLE9=The Way You Look Tonight
TTITLE10=In the Wee Small Hours of the Morning
TTITLE11=Cheek to Cheek
EXTD=YEAR: 2007
EXTT0=
EXTT1=
EXTT2=
EXTT3=
EXTT4=
EXTT5=
EXTT6=
EXTT7=
EXTT8=
EXTT9=
EXTT10=
EXTT11=
PLAYORDER=
